<?xml version="1.0" encoding="UTF-8"?>
<svg id="Capa_1" data-name="Capa 1" xmlns="http://www.w3.org/2000/svg" viewBox="0 0 2964 1076.05">
  <defs>
    <style>
      .cls-1 {
        fill: #eb6aa3;
      }

      .cls-1, .cls-2, .cls-3 {
        stroke-width: 0px;
      }

      .cls-2 {
        fill: #51bcbf;
      }

      .cls-3 {
        fill: #e4087e;
      }
    </style>
  </defs>
  <path class="cls-2" d="M1024.08,1008.81c-26.56-.94-44.13-4.29-52.6-10.04-8.37-5.86-47.68-41.31-117.64-106.45l-45.07-41.72c-50.72-6.07-96.83-23.53-138.56-52.08-53.12-36.5-92.34-81.04-117.64-133.64-11.82-24.47-20.91-50.09-27.19-76.55l-107.5-99.45,110.53-100.91v-.1c5.54-20.6,12.76-40.89,21.65-60.86,23.63-53.33,64.84-99.45,123.5-138.35,39.53-26.14,83.97-43.5,133.43-51.97,4.5-3.87,8.89-7.42,13.18-10.98,31.58-25.83,55.63-41.31,72.05-46.33,16.42-5.12,47.06-7.63,92.02-7.63l5.75-5.75V31.89l-7.22-6.48c-66.61,1.46-104.78,2.09-114.4,2.09-43.5,0-83.55-.94-120.26-2.82l-7.22,5.75v47.06c-6.8,10.14-27.71,32.73-62.64,67.76-35.03,35.03-79.47,79.37-133.33,133.23-53.86,53.86-141.28,135.53-262.48,245.12v-152.05l1.46-166.58c0-34.72,1.25-61.91,3.97-81.46,2.61-19.55,8.05-32,16.31-37.33,8.16-5.23,21.33-8.89,39.42-10.77,18.09-1.99,43.82-3.45,77.17-4.39l5.75-5.02V29.7l-5.75-5.02c-122.25,3.87-191.47,5.75-207.89,5.75-18.4,0-57.2-.94-116.6-2.93L5.75,24.68,0,29.7v36.29l5.75,5.02c51.24,1.88,83.34,4.6,96.31,7.95,13.07,3.45,21.86,7.74,26.46,13.07,4.6,5.33,7.95,15.9,10.14,31.89,2.2,15.9,3.56,51.35,3.97,106.46l1.46,141.17v335.36l-.73,152.78c-.52,51.66-2.3,85.02-5.44,99.97-3.14,14.95-7.22,24.68-12.34,29.28-5.02,4.6-15.06,8.37-30.01,11.19-14.95,2.93-44.86,5.33-89.83,7.32l-5.75,4.29v36.29l5.75,5.75c123.19-3.87,192.2-5.75,207.16-5.75,19.35,0,46.12.42,80.42,1.36,82.51,2.93,124.96,4.39,127.47,4.39l5.75-5.75v-36.29l-5.75-4.29c-51.24-1.99-83.34-4.71-96.42-8.37-12.97-3.66-21.75-8.05-26.35-13.38-4.6-5.33-8.16-15.9-10.56-31.89-2.4-15.9-3.87-51.14-4.29-105.72l-.73-141.17v-154.35c248.15,227.03,388.8,356.38,421.84,388.28,33.05,31.79,71.53,68.5,115.55,110.01,60.34-1.88,99.45-2.82,117.23-2.82,30.01,0,58.98.94,87,2.82l5.02-5.75v-30.43l-5.02-5.86Z"/>
  <path class="cls-1" d="M1070.3,387.96c10.46,42.56,15.69,90.04,15.69,142.22,0,90.77-18.61,158.74-55.84,203.81-37.12,45.18-84.18,67.76-141.17,67.76-48.31,0-91.29-16.21-128.94-48.52-37.65-32.31-65.15-75.19-82.51-128.52-17.46-53.44-26.14-113.88-26.14-181.43,0-85.44,17.67-150.9,52.91-196.28,35.24-45.38,84.29-68.08,147.03-68.08,75.81,0,133.85,32.84,174.11,98.51,11.08,17.99,20.6,37.33,28.55,58.14,26.98-11.08,50.09-21.65,69.44-31.58,0-30.95-.1-59.08-.31-84.29-62.64-59.61-142.95-89.31-240.62-89.31-26.35,0-51.55,2.09-75.5,6.27-28.44,23.63-60.34,51.66-95.79,84.29l-182.79,166.9v.1c-9.31,34.3-13.91,69.44-13.91,105.3,0,32.94,3.66,64.63,10.88,95.06l283.39,262.27c13.8,1.78,28.03,2.61,42.56,2.61,103.32,0,191.58-35.76,264.67-107.19l1.99-1.99c.42-8.26.63-16.63.63-25.2v-331.08h-32.63c-5.02,0-10.25,0-15.69.21Z"/>
  <path class="cls-3" d="M808.76,850.59c-50.72-6.07-96.83-23.53-138.56-52.08-53.12-36.5-92.34-81.04-117.64-133.64-11.82-24.47-20.91-50.09-27.19-76.55l283.39,262.27Z"/>
  <path class="cls-3" d="M806.98,136.68c-28.44,23.63-60.34,51.66-95.79,84.29l-182.79,166.9c5.54-20.6,12.76-40.89,21.65-60.86,23.63-53.33,64.84-99.45,123.5-138.35,39.53-26.14,83.97-43.5,133.43-51.97Z"/>
  <path class="cls-2" d="M1451.26,901.52c-20.81,12.86-42.98,21.23-66.4,25.2.21,8.05.52,17.78.94,29.28.73,21.02,1.46,36.18,2.2,45.49,43.08-39.11,70.48-62.85,82.4-71.32l-19.14-28.65ZM1474.47,303.99c-27.19,3.14-72.16,4.81-134.9,4.81-30.85,0-59.5-.31-86.06-.84,7.42-161.15,13.8-258.5,19.14-291.97l-19.14-16c-35.14,21.86-80.1,42.35-134.9,61.49,2.51,17.67,4.08,70.48,4.5,158.22,2.41,2.09,4.71,4.39,7.01,6.69,63.79,63.89,95.58,146.09,95.58,246.58,0,109.49-35.87,199.84-107.71,271.05,0,.94-.1,1.78-.1,2.72-2.2,29.8-3.24,65.88-3.24,108.44,0,111.68,55.42,169.51,166.38,173.59,10.35-.73,16.42-1.36,18.51-1.88,3.24-.73,6.17-2.41,8.68-4.92,2.51-2.51,4.18-6.38,5.12-11.5.94-5.12,1.99-22.06,3.14-50.93.52-12.55.94-23.74,1.15-33.57-14.22-3.14-25.93-8.47-35.03-16.1-15.69-13.07-25.31-31.16-28.76-54.27-3.45-23.11-5.12-72.16-5.12-147.13l2.82-192.73.31-18.72,1.67-113.25c46.74-.52,85.02-.84,114.82-.84,32.94,0,63.06.31,90.14.84l6.38-7.22,15.16-67.03-5.54-5.54Z"/>
  <path class="cls-3" d="M1118.61,718.83v-331.08h-32.63c-5.02,0-10.25,0-15.69.21-4.39-18.4-9.83-35.87-16.31-52.39,26.98-11.08,50.09-21.65,69.44-31.58,0-30.95-.1-59.08-.31-84.29,2.41,2.09,4.71,4.39,7.01,6.69,63.79,63.89,95.58,146.09,95.58,246.58,0,109.49-35.87,199.84-107.71,271.05.42-8.26.63-16.63.63-25.2Z"/>
  <path class="cls-1" d="M1070.3,387.96c-19.97.31-42.14,1.25-66.51,2.93l-7.22-6.38v-20.71l5.54-7.95c18.61-6.9,35.87-13.7,51.87-20.29,6.48,16.52,11.92,33.99,16.31,52.39Z"/>
  <path class="cls-3" d="M1445.82,1030.46c-24.99-1.57-39.21-2.72-42.67-3.35-3.45-.63-6.27-2.2-8.68-4.5-2.4-2.4-4.18-6.27-5.33-11.5-.31-1.78-.73-4.92-1.15-9.62-3.03,2.72-6.17,5.54-9.31,8.47-27.61,12.76-55.84,19.14-84.49,19.14-4.5,0-8.89-.1-13.18-.31-6.48.52-14.85,1.15-24.78,1.67l-3.56,3.14v16.63l3.56,3.56c32.94-2.09,64.52-3.14,94.85-3.14s62.22,1.05,95.16,3.14l3.14-3.56v-16.63l-3.56-3.14ZM1706.2,1030.46c-27.71,0-43.92-2.4-48.84-7.11-4.81-4.71-7.63-19.55-8.47-44.65-1.36-61.07-1.99-93.91-1.99-98.3v-69.54c0-22.38-1.88-41.2-5.54-56.57-3.66-15.27-10.35-28.44-19.97-39.63-9.52-11.19-23.74-20.91-42.67-29.07-18.82-8.16-38.17-12.23-58.25-12.23-11.82,0-23.32,1.36-34.51,3.97-11.19,2.61-19.35,5.12-24.37,7.53-5.02,2.3-10.25,6.07-15.79,10.98-18.93,17.99-39.53,35.97-61.59,54.17v-97.57c0-91.19,1.46-151.84,4.29-182.17l-7.42-4.71c-34.51,13.7-76.97,23.42-127.27,29.18l-1.99,2.3-1.15,1.25v16.63l3.56,3.56c27.92,0,43.82.52,47.79,1.57,3.97,1.05,6.69,2.61,8.26,4.81,1.67,2.09,2.82,8.78,3.76,20.08.94,11.4,1.78,31.58,2.61,60.86l1.57,83.76v204.65c0,8.37-.21,18.93-.63,31.79,10.25,2.3,21.86,3.45,34.72,3.45,11.08,0,21.96-.84,32.52-2.72-.42-14.12-.63-22.9-.63-26.67v-70.27c0-22.17,1.25-37.02,3.76-44.86,2.51-7.74,9.93-17.46,22.27-28.97,12.44-11.61,24.57-19.87,36.6-24.78,11.92-4.81,26.88-7.22,44.76-7.22s32.21,3.03,44.44,9.2c12.34,6.27,22.07,14.95,29.49,26.14,7.32,11.19,11.82,23.63,13.18,37.33,1.46,13.7,2.2,36.08,2.2,67.14v51.76c0,55.01-1.67,99.66-5.12,133.85l4.71,4.39c32.42-2.09,51.66-3.14,57.72-3.14,11.82,0,34.51,1.05,67.97,3.14l3.14-3.14v-17.04l-3.14-3.14Z"/>
  <path class="cls-1" d="M1387.99,1001.49c-3.03,2.72-6.17,5.54-9.31,8.47-27.61,12.76-55.84,19.14-84.49,19.14-4.5,0-8.89-.1-13.18-.31,10.35-.73,16.42-1.36,18.51-1.88,3.24-.73,6.17-2.41,8.68-4.92,2.51-2.51,4.18-6.38,5.12-11.5.94-5.12,1.99-22.06,3.14-50.93.52-12.55.94-23.74,1.15-33.57,10.25,2.3,21.86,3.45,34.72,3.45,11.08,0,21.96-.84,32.52-2.72.21,8.05.52,17.78.94,29.28.73,21.02,1.46,36.18,2.2,45.49Z"/>
  <path class="cls-2" d="M1823.23,270.65l9.47,5.98c-3.66,38.2-5.49,114.76-5.49,229.68v312.38c0,7.31.67,30.81,2,70.49,1.32,39.69,2.74,62.86,4.24,69.5,1.5,6.65,3.74,11.46,6.72,14.45,2.99,2.99,6.64,4.9,10.96,5.73,4.31.84,22.25,2.25,53.81,4.24l4.48,3.99v20.92l-3.99,4.48c-41.52-2.66-81.54-3.98-120.07-3.98s-78.05,1.32-119.57,3.98l-4.48-4.48v-20.92l4.48-3.99c32.21-1.99,50.4-3.48,54.56-4.48,4.14-1,7.8-3.07,10.96-6.23,3.15-3.15,5.31-7.97,6.48-14.44,1.16-6.48,2.49-27.9,3.98-64.27,1.5-36.37,2.24-63.85,2.24-82.46v-258.07l-1.99-105.62c-1-36.87-2.08-62.44-3.24-76.73-1.17-14.28-2.74-22.74-4.73-25.41-2-2.66-5.48-4.65-10.46-5.98-4.99-1.32-25.09-1.99-60.28-1.99l-4.49-4.49v-20.92l3.99-4.49c63.43-7.3,116.91-19.59,160.42-36.86Z"/>
  <path class="cls-2" d="M2428.27,858.86c-34.72,20.7-67.66,36.91-98.82,48.52-6.17,2.3-12.44,4.38-18.72,6.17-5.33,1.57-10.77,3.03-16.21,4.18v39.95c0,8.58.94,16.62,2.93,24.37,8.78-2.62,17.88-5.86,27.18-9.62,14.95-6.07,30.64-13.49,46.96-22.38,14.54-7.84,29.49-16.73,45.07-26.77l23.22-52.08-11.61-12.34ZM2081.93,346.03v-46.64c-4.29,1.46-8.58,3.04-12.87,4.71-36.7,14.43-71.42,33.78-104.26,57.94-32.84,24.16-56.15,46.11-69.85,65.88-13.81,19.87-26.98,50.09-39.53,90.88-12.55,40.78-18.82,86.58-18.82,137.3,0,76.23,16.31,141.48,48.84,195.54,32.63,54.06,74.87,92.44,126.74,115.14,21.12,9.2,42.76,16.52,64.83,21.96,3.24-9.62,4.92-19.97,4.92-31.06v-78.43c-10.77-7.43-21.02-16-30.95-25.51-49.25-47.27-74.36-120.89-75.3-220.86h106.25v-52.6c-1.99-.1-3.98-.1-5.96-.21-58.25-1.98-91.61-3.66-100.29-5.12,0-80.62,16-141.49,48.11-182.48,16.21-20.7,35.55-36.18,58.14-46.43ZM2453.89,581.11h-145.77c-4.08.21-8.58.42-13.6.73v5.45c.52-.1,1.15-.32,1.67-.53,2.72-.94,5.33-1.98,7.95-3.03l7.74,5.33c-.95,9.2-1.78,22.7-2.51,40.47,2.83,0,5.75-.21,8.79-.31,8.89-.42,17.46-.84,25.72-1.36,43.71-2.62,79.26-7.01,106.88-13.07l7.94-7.94c.42-4.29.84-8.68,1.16-13.07.31-4.08.52-8.16.73-12.34-2.2-.21-4.39-.31-6.7-.31ZM2460.8,556.84c-.73-45.38-9.73-88.47-26.67-128.94-17.88-42.45-48.94-77.39-93.07-104.67-14.74-9.1-30.22-16.62-46.53-22.7v101.44c22.59,35.97,33.78,86.16,33.78,150.47,0,1.37,0,2.83-.1,4.39h132.6Z"/>
  <path class="cls-2" d="M2311.89,589.06c-.94,9.2-1.78,22.69-2.51,40.47-5.12.21-10.14.42-14.85.63v-42.88c.52-.1,1.15-.31,1.67-.52,2.72-.94,5.33-1.99,7.95-3.03l7.74,5.33Z"/>
  <path class="cls-1" d="M2388.64,1051.79c-26.35,0-48.63-9.1-66.82-27.3-12.34-12.34-20.4-26.45-24.37-42.45-5.12,1.67-10.14,3.03-15.06,4.29-39.42,9.62-74.57,14.43-105.41,14.43-34.4,0-67.77-3.98-99.97-12.03-4.39,13.28-11.82,25.2-22.38,35.76-18.19,18.2-40.05,27.3-65.25,27.3h-13.7v24.26h426.55v-24.26h-13.6ZM2208.15,632.87h-126.21v246.37c42.88,30.32,92.97,45.49,150.06,45.49.94,0,1.99,0,2.93-.1,20.29-.21,40.26-2.4,59.61-6.9v-287.58c-42.46,1.89-71.11,2.72-86.38,2.72ZM2282.71,385.56c-30.44-36.5-71.95-54.7-124.55-54.7-28.55,0-53.86,5.02-76.23,15.17v234.24c55.11,1.77,96.2,2.62,123.29,2.62,38.38,0,68.18-.42,89.3-1.05v-179.86c-3.56-5.85-7.52-11.29-11.81-16.41ZM2282.71,385.56c-30.44-36.5-71.95-54.7-124.55-54.7-28.55,0-53.86,5.02-76.23,15.17v234.24c55.11,1.77,96.2,2.62,123.29,2.62,38.38,0,68.18-.42,89.3-1.05v-179.86c-3.56-5.85-7.52-11.29-11.81-16.41ZM2282.71,385.56c-30.44-36.5-71.95-54.7-124.55-54.7-28.55,0-53.86,5.02-76.23,15.17v234.24c55.11,1.77,96.2,2.62,123.29,2.62,38.38,0,68.18-.42,89.3-1.05v-179.86c-3.56-5.85-7.52-11.29-11.81-16.41ZM2950.3,1051.79c-14.22,0-26.35-5.85-36.39-17.47-10.14-11.6-18.51-24.78-25.1-39.53-6.59-14.64-16.42-39.63-29.59-75.08-1.04-5.02-1.99-8.58-3.04-10.66l-60.75-165.44c-42.46-116.38-114.3-174.63-215.53-174.63,94.11-15.16,161.88-56.68,203.39-124.44,26.36-45.6,39.53-94.64,39.53-147.24s-13.17-101.23-39.53-145.78c-27.29-44.55-64-78.64-110.01-102.48-46.11-23.74-95.9-35.66-149.54-35.66h-548.07v24.26h13.7c25.2,0,47.06,9.1,65.25,27.39,18.2,18.2,27.3,40.48,27.3,66.72v167.63c33.05-11.4,68.39-17.04,105.93-17.04s74.14,6.06,106.67,18.19v-168.78c0-26.24,9.1-48.52,27.3-66.72,18.19-18.29,40.47-27.39,66.82-27.39h77.39c37.43,0,70.37,12.97,98.72,38.69,28.34,25.83,48.52,58.04,60.65,96.41,12.24,38.48,18.3,80,18.3,124.55s-6.06,85.95-18.3,124.44c-12.13,38.48-32.31,70.58-60.65,96.41-28.34,25.84-61.28,38.69-98.72,38.69h-5.23c.1,2.1.1,4.29.1,6.49,0,6.06-.1,12.13-.31,18.09,12.54.84,24.26,4.39,35.03,10.35,12.65,7.12,23.32,14.96,31.89,23.53,8.58,8.58,17.68,22.07,27.3,40.26,9.62,18.2,16.73,33.36,21.33,45.5,4.5,12.13,11.82,30.43,21.96,54.69,3.03,9.1,5.54,16.21,7.63,21.23l63.69,163.97c34.4,90.15,86.59,135.11,156.44,135.11h138.14v-24.26h-13.7ZM2282.71,385.56c-30.44-36.5-71.95-54.7-124.55-54.7-28.55,0-53.86,5.02-76.23,15.17v234.24c55.11,1.77,96.2,2.62,123.29,2.62,38.38,0,68.18-.42,89.3-1.05v-179.86c-3.56-5.85-7.52-11.29-11.81-16.41ZM2282.71,385.56c-30.44-36.5-71.95-54.7-124.55-54.7-28.55,0-53.86,5.02-76.23,15.17v234.24c55.11,1.77,96.2,2.62,123.29,2.62,38.38,0,68.18-.42,89.3-1.05v-179.86c-3.56-5.85-7.52-11.29-11.81-16.41ZM2282.71,385.56c-30.44-36.5-71.95-54.7-124.55-54.7-28.55,0-53.86,5.02-76.23,15.17v234.24c55.11,1.77,96.2,2.62,123.29,2.62,38.38,0,68.18-.42,89.3-1.05v-179.86c-3.56-5.85-7.52-11.29-11.81-16.41Z"/>
  <path class="cls-3" d="M2460.9,563.33c0,6.06-.1,12.13-.31,18.09-2.2-.21-4.39-.31-6.7-.31h-159.37v-24.26h166.27c.1,2.1.1,4.29.1,6.49Z"/>
  <path class="cls-3" d="M2294.53,300.54v101.44c-3.56-5.86-7.53-11.29-11.82-16.42-30.43-36.5-71.95-54.69-124.55-54.69-28.55,0-53.86,5.02-76.23,15.16v-46.64c33.05-11.4,68.39-17.05,105.93-17.05s74.14,6.07,106.66,18.2Z"/>
  <path class="cls-3" d="M2297.46,982.04c-5.12,1.67-10.14,3.03-15.06,4.29-39.42,9.62-74.56,14.43-105.41,14.43-34.4,0-67.76-3.97-99.97-12.03,3.24-9.62,4.91-19.97,4.91-31.06v-78.43c42.88,30.33,92.97,45.49,150.06,45.49.94,0,1.99,0,2.93-.1,20.29-.21,40.26-2.4,59.61-6.9v39.95c0,8.58.94,16.63,2.93,24.36Z"/>
  <path class="cls-3" d="M2294.53,581.84v48.31c-42.46,1.88-71.11,2.72-86.38,2.72h-126.22v-52.6c55.11,1.78,96.21,2.61,123.29,2.61,38.38,0,68.18-.42,89.3-1.05Z"/>
  <polygon class="cls-3" points="2304.2 581.11 2294.53 581.84 2294.53 581.11 2304.2 581.11"/>
</svg>